<svg width="45" height="42" viewBox="0 0 45 42" fill="none" xmlns="http://www.w3.org/2000/svg">
<path fill-rule="evenodd" clip-rule="evenodd" d="M5.57553 12.3286C4.02584 14.9659 3.21024 17.9575 3.21073 21.0026C3.21073 25.6031 5.07121 30.0152 8.38289 33.2682C11.6946 36.5212 16.1862 38.3488 20.8696 38.3488C25.553 38.3488 30.0446 36.5212 33.3563 33.2682C36.6679 30.0152 38.5284 25.6031 38.5284 21.0026C38.5284 20.5844 38.6976 20.1833 38.9986 19.8876C39.2997 19.5919 39.708 19.4257 40.1338 19.4257C40.5595 19.4257 40.9679 19.5919 41.2689 19.8876C41.57 20.1833 41.7391 20.5844 41.7391 21.0026C41.7385 25.5153 40.2221 29.9016 37.4251 33.4814C34.628 37.0612 30.7066 39.6344 26.2691 40.802C21.8315 41.9695 17.1257 41.6661 12.8816 39.9389C8.63745 38.2116 5.09209 35.1571 2.79535 31.2489C0.498611 27.3407 -0.421152 22.7972 0.178703 18.3232C0.778558 13.8492 2.86451 9.69468 6.11305 6.50387C9.3616 3.31306 13.5912 1.26431 18.1459 0.675366C22.7006 0.0864211 27.3258 0.990188 31.3044 3.2465C31.6701 3.4571 31.9361 3.80124 32.0445 4.20382C32.1528 4.60641 32.0947 5.03474 31.8827 5.39537C31.6708 5.75599 31.3222 6.01962 30.9131 6.12872C30.504 6.23782 30.0675 6.18355 29.699 5.97773C27.0143 4.45518 23.9689 3.65367 20.8689 3.65379C17.7689 3.65391 14.7235 4.45565 12.039 5.97841C9.35439 7.50117 7.12522 9.6913 5.57553 12.3286ZM44.878 5.27933C44.7975 5.47385 44.6794 5.65059 44.5306 5.79947L22.1221 28.2171C21.9734 28.3662 21.7968 28.4845 21.6023 28.5652C21.4079 28.6459 21.1994 28.6875 20.9889 28.6875C20.7783 28.6875 20.5699 28.6459 20.3754 28.5652C20.181 28.4845 20.0043 28.3662 19.8556 28.2171L10.252 18.6095C10.1032 18.4606 9.98514 18.2839 9.9046 18.0894C9.82406 17.8949 9.78261 17.6864 9.78261 17.4758C9.78261 17.2653 9.82406 17.0568 9.9046 16.8623C9.98514 16.6678 10.1032 16.491 10.252 16.3421C10.4008 16.1933 10.5775 16.0752 10.7719 15.9946C10.9664 15.914 11.1748 15.8726 11.3852 15.8726C11.5957 15.8726 11.8041 15.914 11.9985 15.9946C12.193 16.0752 12.3696 16.1933 12.5185 16.3421L20.9889 24.8192L42.2641 3.53209C42.413 3.38321 42.5896 3.26511 42.7841 3.18454C42.9785 3.10397 43.1869 3.0625 43.3974 3.0625C43.6078 3.0625 43.8162 3.10397 44.0107 3.18454C44.2051 3.26511 44.3818 3.38321 44.5306 3.53209C44.6794 3.68097 44.7975 3.85771 44.878 4.05223C44.9585 4.24675 45 4.45523 45 4.66578C45 4.87632 44.9585 5.08481 44.878 5.27933Z" fill="white"/>
</svg>
