<svg width="14" height="14" viewBox="0 0 14 14" fill="none" xmlns="http://www.w3.org/2000/svg">
<path d="M11.144 3.47375C11.2037 3.41282 11.275 3.36442 11.3536 3.33138C11.4323 3.29833 11.5167 3.28131 11.602 3.28131C11.6874 3.28131 11.7718 3.29833 11.8505 3.33138C11.9291 3.36442 12.0004 3.41282 12.0601 3.47375C12.3104 3.72663 12.3139 4.13525 12.0689 4.3925L6.89498 10.5088C6.83624 10.5733 6.76496 10.6251 6.68549 10.6611C6.60602 10.6971 6.52004 10.7165 6.43281 10.7182C6.34558 10.7198 6.25894 10.7036 6.17817 10.6706C6.09741 10.6376 6.02423 10.5885 5.96311 10.5263L2.81486 7.336C2.69344 7.21218 2.62543 7.04567 2.62543 6.87225C2.62543 6.69883 2.69344 6.53233 2.81486 6.4085C2.87457 6.34757 2.94584 6.29917 3.0245 6.26613C3.10315 6.23308 3.18761 6.21606 3.27292 6.21606C3.35823 6.21606 3.44269 6.23308 3.52134 6.26613C3.6 6.29917 3.67127 6.34757 3.73098 6.4085L6.40148 9.11488L11.1265 3.493C11.1319 3.48624 11.1378 3.47981 11.144 3.47375Z" fill="#024CB5"/>
</svg>
