<svg width="103" height="235" viewBox="0 0 103 235" fill="none" xmlns="http://www.w3.org/2000/svg">
<path d="M11.0101 5.51281C11.0101 8.55744 8.54543 11.0256 5.50507 11.0256C2.4647 11.0256 0 8.55744 0 5.51281C0 2.46817 2.4647 0 5.50507 0C8.54543 0 11.0101 2.46817 11.0101 5.51281Z" fill="white" fill-opacity="0.2"/>
<path d="M11.0101 33.5009C11.0101 36.5455 8.54543 39.0137 5.50507 39.0137C2.4647 39.0137 0 36.5455 0 33.5009C0 30.4563 2.4647 27.9881 5.50507 27.9881C8.54543 27.9881 11.0101 30.4563 11.0101 33.5009Z" fill="white" fill-opacity="0.2"/>
<path d="M11.0101 61.489C11.0101 64.5336 8.54543 67.0018 5.50507 67.0018C2.4647 67.0018 0 64.5336 0 61.489C0 58.4443 2.4647 55.9762 5.50507 55.9762C8.54543 55.9762 11.0101 58.4443 11.0101 61.489Z" fill="white" fill-opacity="0.2"/>
<path d="M11.0101 89.4771C11.0101 92.5217 8.54543 94.9899 5.50507 94.9899C2.4647 94.9899 0 92.5217 0 89.4771C0 86.4324 2.4647 83.9643 5.50507 83.9643C8.54543 83.9643 11.0101 86.4324 11.0101 89.4771Z" fill="white" fill-opacity="0.2"/>
<path d="M11.0101 117.465C11.0101 120.51 8.54543 122.978 5.50507 122.978C2.4647 122.978 0 120.51 0 117.465C0 114.421 2.4647 111.952 5.50507 111.952C8.54543 111.952 11.0101 114.421 11.0101 117.465Z" fill="white" fill-opacity="0.2"/>
<path d="M11.0101 145.453C11.0101 148.498 8.54543 150.966 5.50507 150.966C2.4647 150.966 0 148.498 0 145.453C0 142.409 2.4647 139.94 5.50507 139.94C8.54543 139.94 11.0101 142.409 11.0101 145.453Z" fill="white" fill-opacity="0.2"/>
<path d="M11.0101 173.441C11.0101 176.486 8.54543 178.954 5.50507 178.954C2.4647 178.954 0 176.486 0 173.441C0 170.397 2.4647 167.929 5.50507 167.929C8.54543 167.929 11.0101 170.397 11.0101 173.441Z" fill="white" fill-opacity="0.2"/>
<path d="M11.0101 201.429C11.0101 204.474 8.54543 206.942 5.50507 206.942C2.4647 206.942 0 204.474 0 201.429C0 198.385 2.4647 195.917 5.50507 195.917C8.54543 195.917 11.0101 198.385 11.0101 201.429Z" fill="white" fill-opacity="0.2"/>
<path d="M11.0101 229.418C11.0101 232.462 8.54543 234.93 5.50507 234.93C2.4647 234.93 0 232.462 0 229.418C0 226.373 2.4647 223.905 5.50507 223.905C8.54543 223.905 11.0101 226.373 11.0101 229.418Z" fill="white" fill-opacity="0.2"/>
<path d="M122.805 5.51281C122.805 8.55744 120.341 11.0256 117.3 11.0256C114.26 11.0256 111.795 8.55744 111.795 5.51281C111.795 2.46817 114.26 0 117.3 0C120.341 0 122.805 2.46817 122.805 5.51281Z" fill="white" fill-opacity="0.2"/>
<path d="M122.805 33.5009C122.805 36.5455 120.341 39.0137 117.3 39.0137C114.26 39.0137 111.795 36.5455 111.795 33.5009C111.795 30.4563 114.26 27.9881 117.3 27.9881C120.341 27.9881 122.805 30.4563 122.805 33.5009Z" fill="white" fill-opacity="0.2"/>
<path d="M122.805 61.489C122.805 64.5336 120.341 67.0018 117.3 67.0018C114.26 67.0018 111.795 64.5336 111.795 61.489C111.795 58.4443 114.26 55.9762 117.3 55.9762C120.341 55.9762 122.805 58.4443 122.805 61.489Z" fill="white" fill-opacity="0.2"/>
<path d="M122.805 89.4771C122.805 92.5217 120.341 94.9899 117.3 94.9899C114.26 94.9899 111.795 92.5217 111.795 89.4771C111.795 86.4324 114.26 83.9643 117.3 83.9643C120.341 83.9643 122.805 86.4324 122.805 89.4771Z" fill="white" fill-opacity="0.2"/>
<path d="M122.805 117.465C122.805 120.51 120.341 122.978 117.3 122.978C114.26 122.978 111.795 120.51 111.795 117.465C111.795 114.421 114.26 111.952 117.3 111.952C120.341 111.952 122.805 114.421 122.805 117.465Z" fill="white" fill-opacity="0.2"/>
<path d="M122.805 145.453C122.805 148.498 120.341 150.966 117.3 150.966C114.26 150.966 111.795 148.498 111.795 145.453C111.795 142.409 114.26 139.94 117.3 139.94C120.341 139.94 122.805 142.409 122.805 145.453Z" fill="white" fill-opacity="0.2"/>
<path d="M122.805 173.441C122.805 176.486 120.341 178.954 117.3 178.954C114.26 178.954 111.795 176.486 111.795 173.441C111.795 170.397 114.26 167.929 117.3 167.929C120.341 167.929 122.805 170.397 122.805 173.441Z" fill="white" fill-opacity="0.2"/>
<path d="M122.805 201.429C122.805 204.474 120.341 206.942 117.3 206.942C114.26 206.942 111.795 204.474 111.795 201.429C111.795 198.385 114.26 195.917 117.3 195.917C120.341 195.917 122.805 198.385 122.805 201.429Z" fill="white" fill-opacity="0.2"/>
<path d="M122.805 229.418C122.805 232.462 120.341 234.93 117.3 234.93C114.26 234.93 111.795 232.462 111.795 229.418C111.795 226.373 114.26 223.905 117.3 223.905C120.341 223.905 122.805 226.373 122.805 229.418Z" fill="white" fill-opacity="0.2"/>
<path d="M66.9077 5.51281C66.9077 8.55744 64.443 11.0256 61.4027 11.0256C58.3623 11.0256 55.8976 8.55744 55.8976 5.51281C55.8976 2.46817 58.3623 0 61.4027 0C64.443 0 66.9077 2.46817 66.9077 5.51281Z" fill="white" fill-opacity="0.2"/>
<path d="M66.9077 33.5009C66.9077 36.5455 64.443 39.0137 61.4027 39.0137C58.3623 39.0137 55.8976 36.5455 55.8976 33.5009C55.8976 30.4563 58.3623 27.9881 61.4027 27.9881C64.443 27.9881 66.9077 30.4563 66.9077 33.5009Z" fill="white" fill-opacity="0.2"/>
<path d="M66.9077 61.489C66.9077 64.5336 64.443 67.0018 61.4027 67.0018C58.3623 67.0018 55.8976 64.5336 55.8976 61.489C55.8976 58.4443 58.3623 55.9762 61.4027 55.9762C64.443 55.9762 66.9077 58.4443 66.9077 61.489Z" fill="white" fill-opacity="0.2"/>
<path d="M66.9077 89.4771C66.9077 92.5217 64.443 94.9899 61.4027 94.9899C58.3623 94.9899 55.8976 92.5217 55.8976 89.4771C55.8976 86.4324 58.3623 83.9643 61.4027 83.9643C64.443 83.9643 66.9077 86.4324 66.9077 89.4771Z" fill="white" fill-opacity="0.2"/>
<path d="M66.9077 117.465C66.9077 120.51 64.443 122.978 61.4027 122.978C58.3623 122.978 55.8976 120.51 55.8976 117.465C55.8976 114.421 58.3623 111.952 61.4027 111.952C64.443 111.952 66.9077 114.421 66.9077 117.465Z" fill="white" fill-opacity="0.2"/>
<path d="M66.9077 145.453C66.9077 148.498 64.443 150.966 61.4027 150.966C58.3623 150.966 55.8976 148.498 55.8976 145.453C55.8976 142.409 58.3623 139.94 61.4027 139.94C64.443 139.94 66.9077 142.409 66.9077 145.453Z" fill="white" fill-opacity="0.2"/>
<path d="M66.9077 173.441C66.9077 176.486 64.443 178.954 61.4027 178.954C58.3623 178.954 55.8976 176.486 55.8976 173.441C55.8976 170.397 58.3623 167.929 61.4027 167.929C64.443 167.929 66.9077 170.397 66.9077 173.441Z" fill="white" fill-opacity="0.2"/>
<path d="M66.9077 201.429C66.9077 204.474 64.443 206.942 61.4027 206.942C58.3623 206.942 55.8976 204.474 55.8976 201.429C55.8976 198.385 58.3623 195.917 61.4027 195.917C64.443 195.917 66.9077 198.385 66.9077 201.429Z" fill="white" fill-opacity="0.2"/>
<path d="M66.9077 229.418C66.9077 232.462 64.443 234.93 61.4027 234.93C58.3623 234.93 55.8976 232.462 55.8976 229.418C55.8976 226.373 58.3623 223.905 61.4027 223.905C64.443 223.905 66.9077 226.373 66.9077 229.418Z" fill="white" fill-opacity="0.2"/>
<path d="M178.703 5.51281C178.703 8.55744 176.238 11.0256 173.198 11.0256C170.157 11.0256 167.693 8.55744 167.693 5.51281C167.693 2.46817 170.157 0 173.198 0C176.238 0 178.703 2.46817 178.703 5.51281Z" fill="white" fill-opacity="0.2"/>
<path d="M178.703 33.5009C178.703 36.5455 176.238 39.0137 173.198 39.0137C170.157 39.0137 167.693 36.5455 167.693 33.5009C167.693 30.4563 170.157 27.9881 173.198 27.9881C176.238 27.9881 178.703 30.4563 178.703 33.5009Z" fill="white" fill-opacity="0.2"/>
<path d="M178.703 61.489C178.703 64.5336 176.238 67.0018 173.198 67.0018C170.157 67.0018 167.693 64.5336 167.693 61.489C167.693 58.4443 170.157 55.9762 173.198 55.9762C176.238 55.9762 178.703 58.4443 178.703 61.489Z" fill="white" fill-opacity="0.2"/>
<path d="M178.703 89.4771C178.703 92.5217 176.238 94.9899 173.198 94.9899C170.157 94.9899 167.693 92.5217 167.693 89.4771C167.693 86.4324 170.157 83.9643 173.198 83.9643C176.238 83.9643 178.703 86.4324 178.703 89.4771Z" fill="white" fill-opacity="0.2"/>
<path d="M178.703 117.465C178.703 120.51 176.238 122.978 173.198 122.978C170.157 122.978 167.693 120.51 167.693 117.465C167.693 114.421 170.157 111.952 173.198 111.952C176.238 111.952 178.703 114.421 178.703 117.465Z" fill="white" fill-opacity="0.2"/>
<path d="M178.703 145.453C178.703 148.498 176.238 150.966 173.198 150.966C170.157 150.966 167.693 148.498 167.693 145.453C167.693 142.409 170.157 139.94 173.198 139.94C176.238 139.94 178.703 142.409 178.703 145.453Z" fill="white" fill-opacity="0.2"/>
<path d="M178.703 173.441C178.703 176.486 176.238 178.954 173.198 178.954C170.157 178.954 167.693 176.486 167.693 173.441C167.693 170.397 170.157 167.929 173.198 167.929C176.238 167.929 178.703 170.397 178.703 173.441Z" fill="white" fill-opacity="0.2"/>
<path d="M178.703 201.429C178.703 204.474 176.238 206.942 173.198 206.942C170.157 206.942 167.693 204.474 167.693 201.429C167.693 198.385 170.157 195.917 173.198 195.917C176.238 195.917 178.703 198.385 178.703 201.429Z" fill="white" fill-opacity="0.2"/>
<path d="M178.703 229.418C178.703 232.462 176.238 234.93 173.198 234.93C170.157 234.93 167.693 232.462 167.693 229.418C167.693 226.373 170.157 223.905 173.198 223.905C176.238 223.905 178.703 226.373 178.703 229.418Z" fill="white" fill-opacity="0.2"/>
<path d="M38.9589 5.51281C38.9589 8.55744 36.4942 11.0256 33.4539 11.0256C30.4135 11.0256 27.9488 8.55744 27.9488 5.51281C27.9488 2.46817 30.4135 0 33.4539 0C36.4942 0 38.9589 2.46817 38.9589 5.51281Z" fill="white" fill-opacity="0.2"/>
<path d="M38.9589 33.5009C38.9589 36.5455 36.4942 39.0137 33.4539 39.0137C30.4135 39.0137 27.9488 36.5455 27.9488 33.5009C27.9488 30.4563 30.4135 27.9881 33.4539 27.9881C36.4942 27.9881 38.9589 30.4563 38.9589 33.5009Z" fill="white" fill-opacity="0.2"/>
<path d="M38.9589 61.489C38.9589 64.5336 36.4942 67.0018 33.4539 67.0018C30.4135 67.0018 27.9488 64.5336 27.9488 61.489C27.9488 58.4443 30.4135 55.9762 33.4539 55.9762C36.4942 55.9762 38.9589 58.4443 38.9589 61.489Z" fill="white" fill-opacity="0.2"/>
<path d="M38.9589 89.4771C38.9589 92.5217 36.4942 94.9899 33.4539 94.9899C30.4135 94.9899 27.9488 92.5217 27.9488 89.4771C27.9488 86.4324 30.4135 83.9643 33.4539 83.9643C36.4942 83.9643 38.9589 86.4324 38.9589 89.4771Z" fill="white" fill-opacity="0.2"/>
<path d="M38.9589 117.465C38.9589 120.51 36.4942 122.978 33.4539 122.978C30.4135 122.978 27.9488 120.51 27.9488 117.465C27.9488 114.421 30.4135 111.952 33.4539 111.952C36.4942 111.952 38.9589 114.421 38.9589 117.465Z" fill="white" fill-opacity="0.2"/>
<path d="M38.9589 145.453C38.9589 148.498 36.4942 150.966 33.4539 150.966C30.4135 150.966 27.9488 148.498 27.9488 145.453C27.9488 142.409 30.4135 139.94 33.4539 139.94C36.4942 139.94 38.9589 142.409 38.9589 145.453Z" fill="white" fill-opacity="0.2"/>
<path d="M38.9589 173.441C38.9589 176.486 36.4942 178.954 33.4539 178.954C30.4135 178.954 27.9488 176.486 27.9488 173.441C27.9488 170.397 30.4135 167.929 33.4539 167.929C36.4942 167.929 38.9589 170.397 38.9589 173.441Z" fill="white" fill-opacity="0.2"/>
<path d="M38.9589 201.429C38.9589 204.474 36.4942 206.942 33.4539 206.942C30.4135 206.942 27.9488 204.474 27.9488 201.429C27.9488 198.385 30.4135 195.917 33.4539 195.917C36.4942 195.917 38.9589 198.385 38.9589 201.429Z" fill="white" fill-opacity="0.2"/>
<path d="M38.9589 229.418C38.9589 232.462 36.4942 234.93 33.4539 234.93C30.4135 234.93 27.9488 232.462 27.9488 229.418C27.9488 226.373 30.4135 223.905 33.4539 223.905C36.4942 223.905 38.9589 226.373 38.9589 229.418Z" fill="white" fill-opacity="0.2"/>
<path d="M150.754 5.51281C150.754 8.55744 148.289 11.0256 145.249 11.0256C142.209 11.0256 139.744 8.55744 139.744 5.51281C139.744 2.46817 142.209 0 145.249 0C148.289 0 150.754 2.46817 150.754 5.51281Z" fill="white" fill-opacity="0.2"/>
<path d="M150.754 33.5009C150.754 36.5455 148.289 39.0137 145.249 39.0137C142.209 39.0137 139.744 36.5455 139.744 33.5009C139.744 30.4563 142.209 27.9881 145.249 27.9881C148.289 27.9881 150.754 30.4563 150.754 33.5009Z" fill="white" fill-opacity="0.2"/>
<path d="M150.754 61.489C150.754 64.5336 148.289 67.0018 145.249 67.0018C142.209 67.0018 139.744 64.5336 139.744 61.489C139.744 58.4443 142.209 55.9762 145.249 55.9762C148.289 55.9762 150.754 58.4443 150.754 61.489Z" fill="white" fill-opacity="0.2"/>
<path d="M150.754 89.4771C150.754 92.5217 148.289 94.9899 145.249 94.9899C142.209 94.9899 139.744 92.5217 139.744 89.4771C139.744 86.4324 142.209 83.9643 145.249 83.9643C148.289 83.9643 150.754 86.4324 150.754 89.4771Z" fill="white" fill-opacity="0.2"/>
<path d="M150.754 117.465C150.754 120.51 148.289 122.978 145.249 122.978C142.209 122.978 139.744 120.51 139.744 117.465C139.744 114.421 142.209 111.952 145.249 111.952C148.289 111.952 150.754 114.421 150.754 117.465Z" fill="white" fill-opacity="0.2"/>
<path d="M150.754 145.453C150.754 148.498 148.289 150.966 145.249 150.966C142.209 150.966 139.744 148.498 139.744 145.453C139.744 142.409 142.209 139.94 145.249 139.94C148.289 139.94 150.754 142.409 150.754 145.453Z" fill="white" fill-opacity="0.2"/>
<path d="M150.754 173.441C150.754 176.486 148.289 178.954 145.249 178.954C142.209 178.954 139.744 176.486 139.744 173.441C139.744 170.397 142.209 167.929 145.249 167.929C148.289 167.929 150.754 170.397 150.754 173.441Z" fill="white" fill-opacity="0.2"/>
<path d="M150.754 201.429C150.754 204.474 148.289 206.942 145.249 206.942C142.209 206.942 139.744 204.474 139.744 201.429C139.744 198.385 142.209 195.917 145.249 195.917C148.289 195.917 150.754 198.385 150.754 201.429Z" fill="white" fill-opacity="0.2"/>
<path d="M150.754 229.418C150.754 232.462 148.289 234.93 145.249 234.93C142.209 234.93 139.744 232.462 139.744 229.418C139.744 226.373 142.209 223.905 145.249 223.905C148.289 223.905 150.754 226.373 150.754 229.418Z" fill="white" fill-opacity="0.2"/>
<path d="M94.8565 5.51281C94.8565 8.55744 92.3918 11.0256 89.3514 11.0256C86.3111 11.0256 83.8464 8.55744 83.8464 5.51281C83.8464 2.46817 86.3111 0 89.3514 0C92.3918 0 94.8565 2.46817 94.8565 5.51281Z" fill="white" fill-opacity="0.2"/>
<path d="M94.8565 33.5009C94.8565 36.5455 92.3918 39.0137 89.3514 39.0137C86.3111 39.0137 83.8464 36.5455 83.8464 33.5009C83.8464 30.4563 86.3111 27.9881 89.3514 27.9881C92.3918 27.9881 94.8565 30.4563 94.8565 33.5009Z" fill="white" fill-opacity="0.2"/>
<path d="M94.8565 61.489C94.8565 64.5336 92.3918 67.0018 89.3514 67.0018C86.3111 67.0018 83.8464 64.5336 83.8464 61.489C83.8464 58.4443 86.3111 55.9762 89.3514 55.9762C92.3918 55.9762 94.8565 58.4443 94.8565 61.489Z" fill="white" fill-opacity="0.2"/>
<path d="M94.8565 89.4771C94.8565 92.5217 92.3918 94.9899 89.3514 94.9899C86.3111 94.9899 83.8464 92.5217 83.8464 89.4771C83.8464 86.4324 86.3111 83.9643 89.3514 83.9643C92.3918 83.9643 94.8565 86.4324 94.8565 89.4771Z" fill="white" fill-opacity="0.2"/>
<path d="M94.8565 117.465C94.8565 120.51 92.3918 122.978 89.3514 122.978C86.3111 122.978 83.8464 120.51 83.8464 117.465C83.8464 114.421 86.3111 111.952 89.3514 111.952C92.3918 111.952 94.8565 114.421 94.8565 117.465Z" fill="white" fill-opacity="0.2"/>
<path d="M94.8565 145.453C94.8565 148.498 92.3918 150.966 89.3514 150.966C86.3111 150.966 83.8464 148.498 83.8464 145.453C83.8464 142.409 86.3111 139.94 89.3514 139.94C92.3918 139.94 94.8565 142.409 94.8565 145.453Z" fill="white" fill-opacity="0.2"/>
<path d="M94.8565 173.441C94.8565 176.486 92.3918 178.954 89.3514 178.954C86.3111 178.954 83.8464 176.486 83.8464 173.441C83.8464 170.397 86.3111 167.929 89.3514 167.929C92.3918 167.929 94.8565 170.397 94.8565 173.441Z" fill="white" fill-opacity="0.2"/>
<path d="M94.8565 201.429C94.8565 204.474 92.3918 206.942 89.3514 206.942C86.3111 206.942 83.8464 204.474 83.8464 201.429C83.8464 198.385 86.3111 195.917 89.3514 195.917C92.3918 195.917 94.8565 198.385 94.8565 201.429Z" fill="white" fill-opacity="0.2"/>
<path d="M94.8565 229.418C94.8565 232.462 92.3918 234.93 89.3514 234.93C86.3111 234.93 83.8464 232.462 83.8464 229.418C83.8464 226.373 86.3111 223.905 89.3514 223.905C92.3918 223.905 94.8565 226.373 94.8565 229.418Z" fill="white" fill-opacity="0.2"/>
<path d="M206.652 5.51281C206.652 8.55744 204.187 11.0256 201.147 11.0256C198.106 11.0256 195.642 8.55744 195.642 5.51281C195.642 2.46817 198.106 0 201.147 0C204.187 0 206.652 2.46817 206.652 5.51281Z" fill="white" fill-opacity="0.2"/>
<path d="M206.652 33.5009C206.652 36.5455 204.187 39.0137 201.147 39.0137C198.106 39.0137 195.642 36.5455 195.642 33.5009C195.642 30.4563 198.106 27.9881 201.147 27.9881C204.187 27.9881 206.652 30.4563 206.652 33.5009Z" fill="white" fill-opacity="0.2"/>
<path d="M206.652 61.489C206.652 64.5336 204.187 67.0018 201.147 67.0018C198.106 67.0018 195.642 64.5336 195.642 61.489C195.642 58.4443 198.106 55.9762 201.147 55.9762C204.187 55.9762 206.652 58.4443 206.652 61.489Z" fill="white" fill-opacity="0.2"/>
<path d="M206.652 89.4771C206.652 92.5217 204.187 94.9899 201.147 94.9899C198.106 94.9899 195.642 92.5217 195.642 89.4771C195.642 86.4324 198.106 83.9643 201.147 83.9643C204.187 83.9643 206.652 86.4324 206.652 89.4771Z" fill="white" fill-opacity="0.2"/>
<path d="M206.652 117.465C206.652 120.51 204.187 122.978 201.147 122.978C198.106 122.978 195.642 120.51 195.642 117.465C195.642 114.421 198.106 111.952 201.147 111.952C204.187 111.952 206.652 114.421 206.652 117.465Z" fill="white" fill-opacity="0.2"/>
<path d="M206.652 145.453C206.652 148.498 204.187 150.966 201.147 150.966C198.106 150.966 195.642 148.498 195.642 145.453C195.642 142.409 198.106 139.94 201.147 139.94C204.187 139.94 206.652 142.409 206.652 145.453Z" fill="white" fill-opacity="0.2"/>
<path d="M206.652 173.441C206.652 176.486 204.187 178.954 201.147 178.954C198.106 178.954 195.642 176.486 195.642 173.441C195.642 170.397 198.106 167.929 201.147 167.929C204.187 167.929 206.652 170.397 206.652 173.441Z" fill="white" fill-opacity="0.2"/>
<path d="M206.652 201.429C206.652 204.474 204.187 206.942 201.147 206.942C198.106 206.942 195.642 204.474 195.642 201.429C195.642 198.385 198.106 195.917 201.147 195.917C204.187 195.917 206.652 198.385 206.652 201.429Z" fill="white" fill-opacity="0.2"/>
<path d="M206.652 229.418C206.652 232.462 204.187 234.93 201.147 234.93C198.106 234.93 195.642 232.462 195.642 229.418C195.642 226.373 198.106 223.905 201.147 223.905C204.187 223.905 206.652 226.373 206.652 229.418Z" fill="white" fill-opacity="0.2"/>
</svg>
