<svg width="15" height="15" viewBox="0 0 15 15" fill="none" xmlns="http://www.w3.org/2000/svg">
<g clip-path="url(#clip0_160_36)">
<path d="M11.4056 8.38125C10.9144 9.37687 10.2488 10.3688 9.56813 11.2594C8.92247 12.099 8.23209 12.9033 7.5 13.6687C6.76789 12.9033 6.07752 12.099 5.43188 11.2594C4.75125 10.3688 4.08563 9.37687 3.59438 8.38125C3.0975 7.37531 2.8125 6.43313 2.8125 5.625C2.8125 4.3818 3.30636 3.18951 4.18544 2.31044C5.06451 1.43136 6.2568 0.9375 7.5 0.9375C8.7432 0.9375 9.93549 1.43136 10.8146 2.31044C11.6936 3.18951 12.1875 4.3818 12.1875 5.625C12.1875 6.43313 11.9016 7.37531 11.4056 8.38125ZM7.5 15C7.5 15 13.125 9.66938 13.125 5.625C13.125 4.13316 12.5324 2.70242 11.4775 1.64752C10.4226 0.592632 8.99184 0 7.5 0C6.00816 0 4.57742 0.592632 3.52252 1.64752C2.46763 2.70242 1.875 4.13316 1.875 5.625C1.875 9.66938 7.5 15 7.5 15Z" fill="white"/>
<path d="M7.5 7.5C7.00272 7.5 6.52581 7.30246 6.17417 6.95083C5.82254 6.59919 5.625 6.12228 5.625 5.625C5.625 5.12772 5.82254 4.65081 6.17417 4.29917C6.52581 3.94754 7.00272 3.75 7.5 3.75C7.99728 3.75 8.47419 3.94754 8.82582 4.29917C9.17746 4.65081 9.375 5.12772 9.375 5.625C9.375 6.12228 9.17746 6.59919 8.82582 6.95083C8.47419 7.30246 7.99728 7.5 7.5 7.5ZM7.5 8.4375C8.24592 8.4375 8.96129 8.14118 9.48874 7.61374C10.0162 7.08629 10.3125 6.37092 10.3125 5.625C10.3125 4.87908 10.0162 4.16371 9.48874 3.63626C8.96129 3.10882 8.24592 2.8125 7.5 2.8125C6.75408 2.8125 6.03871 3.10882 5.51126 3.63626C4.98382 4.16371 4.6875 4.87908 4.6875 5.625C4.6875 6.37092 4.98382 7.08629 5.51126 7.61374C6.03871 8.14118 6.75408 8.4375 7.5 8.4375Z" fill="white"/>
</g>
<defs>
<clipPath id="clip0_160_36">
<rect width="15" height="15" fill="white"/>
</clipPath>
</defs>
</svg>
