<svg width="15" height="16" viewBox="0 0 15 16" fill="none" xmlns="http://www.w3.org/2000/svg">
<g clip-path="url(#clip0_41_21)">
<path d="M11.4056 8.88125C10.9144 9.87687 10.2488 10.8688 9.56813 11.7594C8.92247 12.599 8.23209 13.4033 7.5 14.1687C6.76789 13.4033 6.07752 12.599 5.43188 11.7594C4.75125 10.8688 4.08563 9.87687 3.59438 8.88125C3.0975 7.87531 2.8125 6.93313 2.8125 6.125C2.8125 4.8818 3.30636 3.68951 4.18544 2.81044C5.06451 1.93136 6.2568 1.4375 7.5 1.4375C8.7432 1.4375 9.93549 1.93136 10.8146 2.81044C11.6936 3.68951 12.1875 4.8818 12.1875 6.125C12.1875 6.93313 11.9016 7.87531 11.4056 8.88125ZM7.5 15.5C7.5 15.5 13.125 10.1694 13.125 6.125C13.125 4.63316 12.5324 3.20242 11.4775 2.14752C10.4226 1.09263 8.99184 0.5 7.5 0.5C6.00816 0.5 4.57742 1.09263 3.52252 2.14752C2.46763 3.20242 1.875 4.63316 1.875 6.125C1.875 10.1694 7.5 15.5 7.5 15.5Z" fill="#AACFEE"/>
<path d="M7.5 8C7.00272 8 6.52581 7.80246 6.17417 7.45083C5.82254 7.09919 5.625 6.62228 5.625 6.125C5.625 5.62772 5.82254 5.15081 6.17417 4.79917C6.52581 4.44754 7.00272 4.25 7.5 4.25C7.99728 4.25 8.47419 4.44754 8.82582 4.79917C9.17746 5.15081 9.375 5.62772 9.375 6.125C9.375 6.62228 9.17746 7.09919 8.82582 7.45083C8.47419 7.80246 7.99728 8 7.5 8ZM7.5 8.9375C8.24592 8.9375 8.96129 8.64118 9.48874 8.11374C10.0162 7.58629 10.3125 6.87092 10.3125 6.125C10.3125 5.37908 10.0162 4.66371 9.48874 4.13626C8.96129 3.60882 8.24592 3.3125 7.5 3.3125C6.75408 3.3125 6.03871 3.60882 5.51126 4.13626C4.98382 4.66371 4.6875 5.37908 4.6875 6.125C4.6875 6.87092 4.98382 7.58629 5.51126 8.11374C6.03871 8.64118 6.75408 8.9375 7.5 8.9375Z" fill="#AACFEE"/>
</g>
<defs>
<clipPath id="clip0_41_21">
<rect width="15" height="15" fill="white" transform="translate(0 0.5)"/>
</clipPath>
</defs>
</svg>
