<svg width="24" height="24" viewBox="0 0 24 24" fill="none" xmlns="http://www.w3.org/2000/svg">
<path d="M11.0282 11H17.0282C17.2934 11 17.5478 10.8946 17.7353 10.7071C17.9228 10.5196 18.0282 10.2652 18.0282 10C18.0282 9.73478 17.9228 9.48043 17.7353 9.29289C17.5478 9.10536 17.2934 9 17.0282 9H11.0282C10.763 9 10.5086 9.10536 10.3211 9.29289C10.1335 9.48043 10.0282 9.73478 10.0282 10C10.0282 10.2652 10.1335 10.5196 10.3211 10.7071C10.5086 10.8946 10.763 11 11.0282 11ZM7.02819 9C6.83041 9 6.63707 9.05865 6.47262 9.16853C6.30817 9.27841 6.17999 9.43459 6.10431 9.61732C6.02862 9.80004 6.00882 10.0011 6.0474 10.1951C6.08599 10.3891 6.18123 10.5673 6.32108 10.7071C6.46093 10.847 6.63911 10.9422 6.8331 10.9808C7.02708 11.0194 7.22814 10.9996 7.41087 10.9239C7.5936 10.8482 7.74977 10.72 7.85966 10.5556C7.96954 10.3911 8.02819 10.1978 8.02819 10C8.02819 9.73478 7.92283 9.48043 7.73529 9.29289C7.54776 9.10536 7.2934 9 7.02819 9ZM7.02819 13C6.83041 13 6.63707 13.0586 6.47262 13.1685C6.30817 13.2784 6.17999 13.4346 6.10431 13.6173C6.02862 13.8 6.00882 14.0011 6.0474 14.1951C6.08599 14.3891 6.18123 14.5673 6.32108 14.7071C6.46093 14.847 6.63911 14.9422 6.8331 14.9808C7.02708 15.0194 7.22814 14.9996 7.41087 14.9239C7.5936 14.8482 7.74977 14.72 7.85966 14.5556C7.96954 14.3911 8.02819 14.1978 8.02819 14C8.02819 13.7348 7.92283 13.4804 7.73529 13.2929C7.54776 13.1054 7.2934 13 7.02819 13ZM12.0282 2C10.715 2 9.41461 2.25866 8.20135 2.7612C6.9881 3.26375 5.8857 4.00035 4.95712 4.92893C3.08175 6.8043 2.02819 9.34784 2.02819 12C2.01944 14.3091 2.81898 16.5485 4.28819 18.33L2.28819 20.33C2.14943 20.4706 2.05543 20.6492 2.01806 20.8432C1.98068 21.0372 2.00161 21.2379 2.07819 21.42C2.16124 21.5999 2.29589 21.7511 2.46503 21.8544C2.63418 21.9577 2.83019 22.0083 3.02819 22H12.0282C14.6804 22 17.2239 20.9464 19.0993 19.0711C20.9746 17.1957 22.0282 14.6522 22.0282 12C22.0282 9.34784 20.9746 6.8043 19.0993 4.92893C17.2239 3.05357 14.6804 2 12.0282 2ZM12.0282 20H5.43819L6.36819 19.07C6.46267 18.9774 6.53784 18.8669 6.58934 18.7451C6.64084 18.6232 6.66764 18.4923 6.66819 18.36C6.66443 18.0962 6.5566 17.8446 6.36819 17.66C5.05877 16.352 4.24336 14.6305 4.06088 12.7888C3.87839 10.947 4.34013 9.09901 5.36741 7.55952C6.3947 6.02004 7.92398 4.88436 9.6947 4.34597C11.4654 3.80759 13.368 3.8998 15.0784 4.60691C16.7888 5.31402 18.201 6.59227 19.0746 8.22389C19.9482 9.85551 20.2291 11.7395 19.8693 13.555C19.5096 15.3705 18.5315 17.005 17.1017 18.1802C15.672 19.3554 13.8789 19.9985 12.0282 20ZM17.0282 13H11.0282C10.763 13 10.5086 13.1054 10.3211 13.2929C10.1335 13.4804 10.0282 13.7348 10.0282 14C10.0282 14.2652 10.1335 14.5196 10.3211 14.7071C10.5086 14.8946 10.763 15 11.0282 15H17.0282C17.2934 15 17.5478 14.8946 17.7353 14.7071C17.9228 14.5196 18.0282 14.2652 18.0282 14C18.0282 13.7348 17.9228 13.4804 17.7353 13.2929C17.5478 13.1054 17.2934 13 17.0282 13Z" fill="#AACFEE"/>
</svg>
