<svg width="24" height="24" viewBox="0 0 24 24" fill="none" xmlns="http://www.w3.org/2000/svg">
<path d="M22.964 13.823C22.9602 13.7639 22.9508 13.7053 22.936 13.648L20.631 7.511C21.0504 7.23975 21.3954 6.86794 21.6345 6.4294C21.8736 5.99085 21.9992 5.49949 22 5C22 4.73478 21.8946 4.48043 21.7071 4.29289C21.5196 4.10536 21.2652 4 21 4C20.7348 4 20.4804 4.10536 20.2929 4.29289C20.1054 4.48043 20 4.73478 20 5C20.0004 5.2231 19.9262 5.43993 19.7891 5.61598C19.6521 5.79204 19.4601 5.91721 19.2437 5.97159C19.0274 6.02597 18.799 6.00644 18.595 5.91609C18.3911 5.82574 18.2231 5.66978 18.118 5.473C17.8615 5.01744 17.4863 4.63992 17.0324 4.38055C16.5784 4.12118 16.0627 3.98967 15.54 4H13V3C13 2.73478 12.8946 2.48043 12.7071 2.29289C12.5196 2.10536 12.2652 2 12 2C11.7348 2 11.4804 2.10536 11.2929 2.29289C11.1054 2.48043 11 2.73478 11 3V4H8.46C7.93729 3.98967 7.42156 4.12118 6.96762 4.38055C6.51368 4.63992 6.13851 5.01744 5.882 5.473C5.77686 5.66978 5.60895 5.82574 5.40496 5.91609C5.20097 6.00644 4.97262 6.02597 4.75625 5.97159C4.53988 5.91721 4.3479 5.79204 4.21087 5.61598C4.07383 5.43993 3.99961 5.2231 4 5C4 4.73478 3.89464 4.48043 3.70711 4.29289C3.51957 4.10536 3.26522 4 3 4C2.73478 4 2.48043 4.10536 2.29289 4.29289C2.10536 4.48043 2 4.73478 2 5C2.00079 5.49949 2.12645 5.99085 2.36554 6.4294C2.60464 6.86794 2.94958 7.23975 3.369 7.511L1.064 13.648C1.04922 13.7053 1.03985 13.7639 1.036 13.823C1.0184 13.8807 1.00635 13.94 1 14C1 14.01 1.003 14.018 1.003 14.027C1.003 14.04 1.006 14.052 1.007 14.066C1.03036 15.1095 1.4613 16.1025 2.20759 16.8322C2.95388 17.562 3.9562 17.9706 5 17.9706C6.0438 17.9706 7.04612 17.562 7.79241 16.8322C8.5387 16.1025 8.96964 15.1095 8.993 14.066C8.994 14.052 8.997 14.04 8.997 14.027C8.997 14.017 9 14.009 9 14C8.99365 13.94 8.9816 13.8807 8.964 13.823C8.96015 13.7639 8.95078 13.7053 8.936 13.648L6.629 7.504C7.05274 7.23364 7.40149 6.86082 7.643 6.42C7.73022 6.28433 7.85167 6.17406 7.99511 6.10032C8.13856 6.02658 8.29891 5.99197 8.46 6H11V20H8C7.73478 20 7.48043 20.1054 7.29289 20.2929C7.10536 20.4804 7 20.7348 7 21C7 21.2652 7.10536 21.5196 7.29289 21.7071C7.48043 21.8946 7.73478 22 8 22H16C16.2652 22 16.5196 21.8946 16.7071 21.7071C16.8946 21.5196 17 21.2652 17 21C17 20.7348 16.8946 20.4804 16.7071 20.2929C16.5196 20.1054 16.2652 20 16 20H13V6H15.54C15.7011 5.99197 15.8614 6.02658 16.0049 6.10032C16.1483 6.17406 16.2698 6.28433 16.357 6.42C16.5985 6.86082 16.9473 7.23364 17.371 7.504L15.064 13.648C15.0492 13.7053 15.0398 13.7639 15.036 13.823C15.0184 13.8807 15.0063 13.94 15 14C15 14.01 15.003 14.018 15.003 14.027C15.003 14.04 15.006 14.052 15.007 14.066C15.0304 15.1095 15.4613 16.1025 16.2076 16.8322C16.9539 17.562 17.9562 17.9706 19 17.9706C20.0438 17.9706 21.0461 17.562 21.7924 16.8322C22.5387 16.1025 22.9696 15.1095 22.993 14.066C22.994 14.052 22.997 14.04 22.997 14.027C22.997 14.017 23 14.009 23 14C22.9937 13.94 22.9816 13.8807 22.964 13.823ZM5 8.856L6.556 13H3.444L5 8.856ZM6.723 15C6.54649 15.3012 6.29505 15.5516 5.99313 15.7268C5.6912 15.902 5.34907 15.9961 5 16C4.6491 15.9998 4.30443 15.9073 4.0006 15.7318C3.69676 15.5563 3.44445 15.3039 3.269 15H6.723ZM19 8.856L20.556 13H17.444L19 8.856ZM19 16C18.6491 15.9998 18.3044 15.9073 18.0006 15.7318C17.6968 15.5563 17.4444 15.3039 17.269 15H20.723C20.5465 15.3012 20.295 15.5516 19.9931 15.7268C19.6912 15.902 19.3491 15.9961 19 16Z" fill="#AACFEE"/>
</svg>
