<svg width="24" height="24" viewBox="0 0 24 24" fill="none" xmlns="http://www.w3.org/2000/svg">
<path d="M11 20H5C4.73478 20 4.48043 19.8946 4.29289 19.7071C4.10536 19.5196 4 19.2652 4 19V5C4 4.73478 4.10536 4.48043 4.29289 4.29289C4.48043 4.10536 4.73478 4 5 4H10V7C10 7.79565 10.3161 8.55871 10.8787 9.12132C11.4413 9.68393 12.2044 10 13 10H16V15C16 15.2652 16.1054 15.5196 16.2929 15.7071C16.4804 15.8946 16.7348 16 17 16C17.2652 16 17.5196 15.8946 17.7071 15.7071C17.8946 15.5196 18 15.2652 18 15V8.94C17.9896 8.84813 17.9695 8.75763 17.94 8.67V8.58C17.8919 8.47718 17.8278 8.38267 17.75 8.3L11.75 2.3C11.6673 2.22222 11.5728 2.15808 11.47 2.11C11.4369 2.10421 11.4031 2.10421 11.37 2.11C11.2728 2.058 11.1683 2.02092 11.06 2H5C4.20435 2 3.44129 2.31607 2.87868 2.87868C2.31607 3.44129 2 4.20435 2 5V19C2 19.7956 2.31607 20.5587 2.87868 21.1213C3.44129 21.6839 4.20435 22 5 22H11C11.2652 22 11.5196 21.8946 11.7071 21.7071C11.8946 21.5196 12 21.2652 12 21C12 20.7348 11.8946 20.4804 11.7071 20.2929C11.5196 20.1054 11.2652 20 11 20ZM12 5.41L14.59 8H13C12.7348 8 12.4804 7.89464 12.2929 7.70711C12.1054 7.51957 12 7.26522 12 7V5.41ZM7 14H13C13.2652 14 13.5196 13.8946 13.7071 13.7071C13.8946 13.5196 14 13.2652 14 13C14 12.7348 13.8946 12.4804 13.7071 12.2929C13.5196 12.1054 13.2652 12 13 12H7C6.73478 12 6.48043 12.1054 6.29289 12.2929C6.10536 12.4804 6 12.7348 6 13C6 13.2652 6.10536 13.5196 6.29289 13.7071C6.48043 13.8946 6.73478 14 7 14ZM11 16H7C6.73478 16 6.48043 16.1054 6.29289 16.2929C6.10536 16.4804 6 16.7348 6 17C6 17.2652 6.10536 17.5196 6.29289 17.7071C6.48043 17.8946 6.73478 18 7 18H11C11.2652 18 11.5196 17.8946 11.7071 17.7071C11.8946 17.5196 12 17.2652 12 17C12 16.7348 11.8946 16.4804 11.7071 16.2929C11.5196 16.1054 11.2652 16 11 16ZM7 10H8C8.26522 10 8.51957 9.89464 8.70711 9.70711C8.89464 9.51957 9 9.26522 9 9C9 8.73478 8.89464 8.48043 8.70711 8.29289C8.51957 8.10536 8.26522 8 8 8H7C6.73478 8 6.48043 8.10536 6.29289 8.29289C6.10536 8.48043 6 8.73478 6 9C6 9.26522 6.10536 9.51957 6.29289 9.70711C6.48043 9.89464 6.73478 10 7 10ZM20.71 16.29C20.617 16.1963 20.5064 16.1219 20.3846 16.0711C20.2627 16.0203 20.132 15.9942 20 15.9942C19.868 15.9942 19.7373 16.0203 19.6154 16.0711C19.4936 16.1219 19.383 16.1963 19.29 16.29L16 19.59L14.71 18.29C14.6168 18.1968 14.5061 18.1228 14.3842 18.0723C14.2624 18.0219 14.1319 17.9959 14 17.9959C13.8681 17.9959 13.7376 18.0219 13.6158 18.0723C13.4939 18.1228 13.3832 18.1968 13.29 18.29C13.1968 18.3832 13.1228 18.4939 13.0723 18.6158C13.0219 18.7376 12.9959 18.8681 12.9959 19C12.9959 19.1319 13.0219 19.2624 13.0723 19.3842C13.1228 19.5061 13.1968 19.6168 13.29 19.71L15.29 21.71C15.383 21.8037 15.4936 21.8781 15.6154 21.9289C15.7373 21.9797 15.868 22.0058 16 22.0058C16.132 22.0058 16.2627 21.9797 16.3846 21.9289C16.5064 21.8781 16.617 21.8037 16.71 21.71L20.71 17.71C20.8037 17.617 20.8781 17.5064 20.9289 17.3846C20.9797 17.2627 21.0058 17.132 21.0058 17C21.0058 16.868 20.9797 16.7373 20.9289 16.6154C20.8781 16.4936 20.8037 16.383 20.71 16.29Z" fill="#AACFEE"/>
</svg>
