<svg width="22" height="42" viewBox="0 0 22 42" fill="none" xmlns="http://www.w3.org/2000/svg">
<path fill-rule="evenodd" clip-rule="evenodd" d="M0.518735 1.14374C0.663877 0.998226 0.836301 0.882779 1.02613 0.804009C1.21596 0.725239 1.41946 0.684692 1.62498 0.684692C1.83051 0.684692 2.03401 0.725239 2.22384 0.804009C2.41367 0.882779 2.58609 0.998226 2.73124 1.14374L21.4812 19.8937C21.6267 20.0389 21.7422 20.2113 21.821 20.4011C21.8997 20.591 21.9403 20.7945 21.9403 21C21.9403 21.2055 21.8997 21.409 21.821 21.5988C21.7422 21.7887 21.6267 21.9611 21.4812 22.1062L2.73124 40.8562C2.43784 41.1496 2.03991 41.3145 1.62498 41.3145C1.21006 41.3145 0.81213 41.1496 0.518735 40.8562C0.225339 40.5628 0.0605105 40.1649 0.0605105 39.75C0.0605105 39.3351 0.225339 38.9371 0.518735 38.6437L18.1656 21L0.518735 3.35624C0.373224 3.21109 0.257778 3.03867 0.179007 2.84884C0.100237 2.65901 0.0596924 2.45551 0.0596924 2.24999C0.0596924 2.04446 0.100237 1.84096 0.179007 1.65113C0.257778 1.4613 0.373224 1.28888 0.518735 1.14374Z" fill="#011D45"/>
</svg>
