<svg width="22" height="42" viewBox="0 0 22 42" fill="none" xmlns="http://www.w3.org/2000/svg">
<path fill-rule="evenodd" clip-rule="evenodd" d="M21.4812 1.14374C21.6267 1.28888 21.7422 1.4613 21.821 1.65113C21.8997 1.84096 21.9403 2.04446 21.9403 2.24999C21.9403 2.45551 21.8997 2.65901 21.821 2.84884C21.7422 3.03867 21.6267 3.21109 21.4812 3.35624L3.83436 21L21.4812 38.6437C21.7746 38.9371 21.9395 39.3351 21.9395 39.75C21.9395 40.1649 21.7746 40.5628 21.4812 40.8562C21.1878 41.1496 20.7899 41.3145 20.375 41.3145C19.9601 41.3145 19.5621 41.1496 19.2687 40.8562L0.518735 22.1062C0.373224 21.9611 0.257778 21.7887 0.179007 21.5988C0.100237 21.409 0.0596924 21.2055 0.0596924 21C0.0596924 20.7945 0.100237 20.591 0.179007 20.4011C0.257778 20.2113 0.373224 20.0389 0.518735 19.8937L19.2687 1.14374C19.4139 0.998226 19.5863 0.882779 19.7761 0.804009C19.966 0.725239 20.1695 0.684692 20.375 0.684692C20.5805 0.684692 20.784 0.725239 20.9738 0.804009C21.1637 0.882779 21.3361 0.998226 21.4812 1.14374Z" fill="#011D45"/>
</svg>
