<svg width="76" height="76" viewBox="0 0 76 76" fill="none" xmlns="http://www.w3.org/2000/svg">
<path d="M76 38C76 48.0782 71.9964 57.7437 64.8701 64.8701C57.7437 71.9964 48.0782 76 38 76C27.9218 76 18.2563 71.9964 11.1299 64.8701C4.00356 57.7437 0 48.0782 0 38C0 27.9218 4.00356 18.2563 11.1299 11.1299C18.2563 4.00356 27.9218 0 38 0C48.0782 0 57.7437 4.00356 64.8701 11.1299C71.9964 18.2563 76 27.9218 76 38ZM40.375 21.375C40.375 20.7451 40.1248 20.141 39.6794 19.6956C39.234 19.2502 38.6299 19 38 19C37.3701 19 36.766 19.2502 36.3206 19.6956C35.8752 20.141 35.625 20.7451 35.625 21.375V48.8918L25.4315 38.6935C24.9855 38.2475 24.3807 37.997 23.75 37.997C23.1193 37.997 22.5145 38.2475 22.0685 38.6935C21.6225 39.1395 21.372 39.7443 21.372 40.375C21.372 41.0057 21.6225 41.6105 22.0685 42.0565L36.3185 56.3065C36.5391 56.5277 36.8012 56.7032 37.0897 56.8229C37.3783 56.9426 37.6876 57.0042 38 57.0042C38.3124 57.0042 38.6217 56.9426 38.9103 56.8229C39.1988 56.7032 39.4609 56.5277 39.6815 56.3065L53.9315 42.0565C54.3775 41.6105 54.628 41.0057 54.628 40.375C54.628 39.7443 54.3775 39.1395 53.9315 38.6935C53.4855 38.2475 52.8807 37.997 52.25 37.997C51.6193 37.997 51.0145 38.2475 50.5685 38.6935L40.375 48.8918V21.375Z" fill="#AACFEE"/>
</svg>
