<svg width="9" height="9" viewBox="0 0 9 9" fill="none" xmlns="http://www.w3.org/2000/svg">
<path d="M2.05515 0.746922C2.02195 0.704206 1.98003 0.669045 1.93219 0.643773C1.88435 0.618502 1.83168 0.603698 1.77768 0.600347C1.72368 0.596995 1.66958 0.605171 1.61899 0.624333C1.56839 0.643495 1.52245 0.673203 1.48421 0.711484L0.902589 1.29367C0.630902 1.56592 0.530777 1.95123 0.649464 2.2893C1.14207 3.68856 1.94338 4.95897 2.99396 6.0063C4.0413 7.05687 5.3117 7.85817 6.71096 8.3508C7.04903 8.46948 7.43434 8.36936 7.70659 8.09767L8.28821 7.51605C8.3265 7.47781 8.3562 7.43187 8.37537 7.38127C8.39453 7.33068 8.4027 7.27658 8.39935 7.22258C8.396 7.16858 8.3812 7.11591 8.35593 7.06807C8.33065 7.02023 8.29549 6.97831 8.25278 6.94511L6.95509 5.93598C6.90945 5.90059 6.85638 5.87602 6.79986 5.86413C6.74334 5.85225 6.68487 5.85335 6.62884 5.86736L5.39696 6.17505C5.23253 6.21614 5.06026 6.21396 4.89693 6.16872C4.73359 6.12347 4.58475 6.0367 4.4649 5.91686L3.0834 4.5348C2.96346 4.415 2.87659 4.26619 2.83124 4.10285C2.7859 3.93951 2.78363 3.76721 2.82465 3.60273L3.1329 2.37086C3.14691 2.31483 3.14802 2.25635 3.13613 2.19984C3.12424 2.14332 3.09967 2.09024 3.06428 2.04461L2.05515 0.746922ZM1.05953 0.287359C1.15796 0.188893 1.27622 0.112495 1.40644 0.0632375C1.53667 0.0139798 1.67588 -0.00701003 1.81484 0.00166163C1.9538 0.0103333 2.08933 0.048468 2.21242 0.113534C2.33551 0.178599 2.44335 0.269107 2.52878 0.379047L3.5379 1.67617C3.72296 1.91411 3.78821 2.22405 3.71509 2.51655L3.4074 3.74842C3.39149 3.81223 3.39235 3.87906 3.4099 3.94243C3.42744 4.00581 3.46107 4.06357 3.50753 4.11011L4.88959 5.49217C4.93618 5.53872 4.99404 5.57241 5.05752 5.58995C5.12101 5.6075 5.18795 5.60831 5.25184 5.5923L6.48315 5.28461C6.6275 5.24852 6.77816 5.24571 6.92375 5.27641C7.06933 5.30711 7.20604 5.3705 7.32353 5.4618L8.62065 6.47092C9.08696 6.83373 9.12971 7.5228 8.71234 7.93961L8.13071 8.52123C7.71446 8.93748 7.09234 9.1203 6.5124 8.91611C5.02807 8.39384 3.68037 7.54408 2.56928 6.42986C1.45513 5.31893 0.605369 3.97143 0.0830266 2.4873C-0.120598 1.90792 0.0622141 1.28523 0.478464 0.868984L1.06009 0.287359H1.05953Z" fill="#AACFEE"/>
</svg>
